<svg width="512" height="512" viewBox="0 0 512 512" fill="none" xmlns="http://www.w3.org/2000/svg">
<g clip-path="url(#clip0_13_94)">
<path d="M240.941 412.212H271.059V442.33H240.941V412.212Z" fill="white"/>
<path d="M240.941 291.742H271.059V321.859H240.941V291.742Z" fill="white"/>
<path d="M450.563 60.2171C458.561 110.103 427.564 150.57 391.529 150.57V120.452C411.262 120.452 427.168 90.149 419.852 60.2171H363.207C372.98 20.2269 410.075 20.2129 419.852 60.2171H450.563C437.775 -19.5374 345.323 -19.7744 332.497 60.2171H299.975C307.973 110.103 276.976 150.57 240.941 150.57V120.452C260.673 120.452 276.579 90.149 269.264 60.2171H212.619C222.392 20.2269 259.487 20.2129 269.264 60.2171H299.975C287.187 -19.5374 194.735 -19.7744 181.909 60.2171H149.387C156.643 105.476 129.999 150.57 90.3529 150.57V120.452C110.085 120.452 125.991 90.149 118.676 60.2171H62.0303C71.8035 20.2269 108.898 20.2129 118.676 60.2171H149.387C139.69 -0.254099 79.2124 -20.1548 46.3611 23.6483C38.657 33.9204 33.5099 46.5608 31.3203 60.2171H0V180.688H512V60.2171H450.563Z" fill="white"/>
<path d="M0 511.982H512V210.805H0V511.982ZM357.001 290.511L376.471 309.98L426.058 260.392L447.354 281.688L376.471 352.572L335.705 311.806L357.001 290.511ZM357.001 395.923L376.471 415.392L426.058 365.804L447.354 387.1L376.471 457.984L335.705 417.218L357.001 395.923ZM210.824 261.624H301.176V351.977H210.824V261.624ZM210.824 382.095H301.176V472.447H210.824V382.095ZM84.9378 291.742L104.408 311.212L153.996 261.625L175.292 282.921L104.408 353.803L63.6426 313.038L84.9378 291.742ZM61.8145 401.565L83.1107 380.268L104.408 401.565L125.704 380.268L147 401.565L125.704 422.861L147 444.157L125.704 465.453L104.408 444.156L83.1107 465.452L61.8145 444.156L83.1117 422.86L61.8145 401.565Z" fill="white"/>
</g>
<defs>
<clipPath id="clip0_13_94">
<rect width="512" height="512" fill="white"/>
</clipPath>
</defs>
</svg>
