<svg width="512" height="512" viewBox="0 0 512 512" fill="none" xmlns="http://www.w3.org/2000/svg">
<g clip-path="url(#clip0_13_52)">
<path d="M195.765 196.946L217.824 163.859H278.059L317.976 103.983L348.48 163.859H461.271C469.822 124.909 458.987 82.5193 428.757 52.2893L428.756 52.2883C405.928 29.4601 375.574 16.887 343.289 16.887C311.004 16.887 280.651 29.4601 257.822 52.2893L256 54.1104C254.98 53.4197 223.517 16.888 168.711 16.888C91.2275 16.888 34.1646 88.5589 50.658 163.858H173.706L195.765 196.946Z" fill="white"/>
<path d="M314.495 163.499L294.177 193.976H233.943L195.765 251.243L157.589 193.977H61.6548C67.2607 204.62 74.4959 214.476 83.2441 223.224C251.839 389.419 244.101 389.701 256 389.701C267.956 389.701 261.84 387.765 428.756 223.224C437.595 214.384 444.775 204.506 450.299 193.977H330.022L314.495 163.499Z" fill="white"/>
<path d="M365.106 329.466L288.001 406.57C270.328 424.249 241.674 424.25 223.995 406.567L146.894 329.466H0V495.113H105.412V449.937H135.529V495.113H195.765V464.995H225.882V495.113H286.118V449.937H316.235V495.113H376.471V464.995H406.588V495.113H512V329.466H365.106Z" fill="white"/>
</g>
<defs>
<clipPath id="clip0_13_52">
<rect width="512" height="512" fill="white"/>
</clipPath>
</defs>
</svg>
