<svg width="512" height="512" viewBox="0 0 512 512" fill="none" xmlns="http://www.w3.org/2000/svg">
<g clip-path="url(#clip0_13_82)">
<path d="M157.494 195.765H335.23L367.664 90.353H149.385L157.494 195.765Z" fill="white"/>
<path d="M474.976 195.765L483.085 90.353H399.176L366.743 195.765H474.976Z" fill="white"/>
<path d="M512 30.1176V0H395.466L367.664 90.3529H399.176L417.711 30.1176H512Z" fill="white"/>
<path d="M301.176 361.412V331.294H256V368.439C256 426.563 208.712 473.851 150.588 473.851C92.4642 473.851 45.1765 426.563 45.1765 368.439V331.294H0V361.412C0 444.58 67.4204 512 150.588 512C233.756 512 301.176 444.58 301.176 361.412Z" fill="white"/>
<path d="M225.882 331.294H176.047L223.292 387.99C227.414 372.677 225.291 364.09 225.882 331.294V331.294Z" fill="white"/>
<path d="M125.13 331.294H75.2942V368.439C75.2942 375.201 76.2047 381.751 77.8843 387.99L125.13 331.294Z" fill="white"/>
<path d="M165.647 442.217C182.567 438.769 197.432 429.621 208.167 416.883L165.647 365.86V442.217Z" fill="white"/>
<path d="M135.529 442.217V365.859L93.0093 416.882C103.744 429.621 118.609 438.77 135.529 442.217Z" fill="white"/>
<path d="M165.647 301.176H331.294V361.412C331.294 381.835 327.835 402.533 320.7 422.378L457.601 421.647L472.659 225.882H159.81L165.647 301.176ZM376.471 271.059H406.588V301.176H376.471V271.059ZM361.412 346.353H391.529V376.471H361.412V346.353Z" fill="white"/>
<path d="M250.359 512H450.651L455.284 451.765H307.036C293.036 475.912 273.552 496.582 250.359 512V512Z" fill="white"/>
</g>
<defs>
<clipPath id="clip0_13_82">
<rect width="512" height="512" fill="white"/>
</clipPath>
</defs>
</svg>
