<svg width="512" height="512" viewBox="0 0 512 512" fill="none" xmlns="http://www.w3.org/2000/svg">
<g clip-path="url(#clip0_13_167)">
<path d="M421.647 459.294C417.983 459.294 411.365 459.293 391.529 456.424V474.353H105.412V442.973C148.089 435.782 180.706 398.572 180.706 353.882C180.706 304.062 140.174 263.529 90.3529 263.529C40.5323 263.529 0 304.062 0 353.882C0 398.573 32.6164 435.782 75.2941 442.973V474.353H0V504.47H512V474.353H421.647V459.294ZM75.2941 338.823H105.412V368.941H75.2941V338.823Z" fill="white"/>
<path d="M205.448 389.496C296.064 408.974 396.22 429.176 421.647 429.176C471.552 429.176 512 388.728 512 338.823C512 288.918 471.552 248.47 421.647 248.47C395.475 248.47 292.318 277.625 200.568 305.272C207.156 320.148 210.823 336.594 210.823 353.882C210.823 366.276 208.94 378.236 205.448 389.496ZM301.176 323.765H364.002C370.218 306.237 386.956 293.647 406.588 293.647C431.499 293.647 451.765 313.912 451.765 338.823C451.765 363.735 431.499 384 406.588 384C386.956 384 370.218 371.41 364.002 353.882H301.176V323.765Z" fill="white"/>
<path d="M406.588 353.882C414.905 353.882 421.647 347.14 421.647 338.823C421.647 330.507 414.905 323.765 406.588 323.765C398.271 323.765 391.529 330.507 391.529 338.823C391.529 347.14 398.271 353.882 406.588 353.882Z" fill="white"/>
<path d="M75.2939 81.3075V234.35C80.2282 233.733 85.2538 233.411 90.3527 233.411C95.4516 233.411 100.477 233.732 105.412 234.35V82.8234H150.588V52.7058H90.3527C65.4424 52.7058 45.1762 32.4386 45.1762 7.5293H15.0586C15.0586 43.8903 40.9678 74.3122 75.2939 81.3075Z" fill="white"/>
<path d="M391.529 143.059V222.145C410.773 218.354 417.571 218.353 421.647 218.353V143.059H451.765V112.941H391.529C358.316 112.941 331.294 139.963 331.294 173.176H361.412C361.412 156.57 374.922 143.059 391.529 143.059Z" fill="white"/>
</g>
<defs>
<clipPath id="clip0_13_167">
<rect width="512" height="512" fill="white"/>
</clipPath>
</defs>
</svg>
